<svg height="1696" viewBox="0 -5.21 3132.59 2119.39" width="2500" xmlns="http://www.w3.org/2000/svg"><path d="m735.22.61c2.29-.43 4.36-.72 6.44.66l1035.17 1293.28-2.47 10.73-500 1.88-19.59-6.4c-177.19-215.88-351.65-435.19-524.62-654.5-5.71-211.75-.67-424.84-2.54-637.1l1.09-4.9c.94-1.59 4.63-3.31 6.52-3.66zm1581.19 2.17c2.22 2.23 2.3 7.31 2.56 10.42l-.56 625.03c-1.83 8.03-6.16 14.61-10.7 21.28-44.31 65.13-107.31 125.66-152.76 190.98-8.31 7.95-19.11 14.34-30.89 15.08h-487.92c-9.97.14-15.51-4.35-12.48-14.63l671.3-839.6c4.91-5.32 13.47-16.55 21.46-8.56zm-864.94 1882.15c0 126.61-102.68 229.25-229.34 229.25s-229.34-102.64-229.34-229.25 102.68-229.25 229.34-229.25 229.34 102.64 229.34 229.25zm-80.03 0c0-82.44-66.86-149.27-149.33-149.27s-149.33 66.83-149.33 149.27 66.86 149.27 149.33 149.27 149.33-66.83 149.33-149.27zm539.66 217.42h-96.95c-6.34-4.09-10.11-9.55-14.91-15.07-47.42-54.52-89.29-116.19-136.9-170.85-1.57-2.05-2.91-4.41-3.09-7.04-.79-11.62 115.29-143.14 127.91-164.7h-187.9v354.67l-3 3h-73.96c-.35 0-3.53-3.08-3.97-4.03l-1.12-422.67 2.9-7.09 338.13-1.92c9.15-.23 10.23 3.07 10.99 10.99 2.94 30.24-1.69 66.34-1 97.14l-104.07 129.81-1.1 4.86 146.94 185.02 1.1 7.89zm481.75-126.88c-.77 2.68-5.67 4.2-8.04 2.04-19.18-28.1-45.5-53.5-64.71-81.18-3.36-4.84-7.8-9-8.74-15.24l-.51-203.38c.78-6.79 1.71-10.22 8.92-11.07 12.47-1.46 56.18-1.73 67.97.21 4.72.78 8.56 4.07 12.41 6.59l238.57 297.03v-296.73c0-.96 2.98-4.71 4-5.99 3.17-1.92 69.83-1.89 73.93.03.94.44 4.03 3.62 4.03 3.97v427.6l-3 3h-75.96c-2.69 0-12.43-10.35-14.94-13.04l-233.93-290.68zm-433.77-303.72c.19-.66 3.11-3.54 4.03-3.97 4.52-2.11 67.14-1.87 73.99-.09 2.98.78 7.65 3.84 10.03 5.96l337.81 423.69-3.41 4.69c-28.13-1.38-60.01 2.94-87.73.42-13.14-1.2-16.79-9.8-24.84-19.13-33.3-38.56-63.83-87.43-98.06-123.77-1.87-1.98-5.93-7.55-8.72-6.97l-111.22 138.73c-2.16 2.45-10.5 11.05-12.93 11.05h-75.96l-3-3v-427.6zm81.96 306.72 75.73-94.62-75.73-93.21zm-1492.23 123.88c-3.51-.76-10.16-8.12-12.93-11.05l-111.22-138.72-5.83 3.86c-38.2 40.76-70.58 97.69-108.94 136.86-6.25 6.38-7.27 8.26-16.84 9.14-19.42 1.79-65.21 2.23-84.15 0-3.38-.4-7.05-.53-6.99-5.1l329.86-413.66c7.19-8.07 16.03-15.24 27.21-16.76 7.65-1.04 60.5-1.14 64.76.86.94.44 4.03 3.62 4.03 3.97v427.6l-3 3zm-3-123.88v-187.83l-75.68 94.56zm-463.75-8 242.87-299.72c2.92-2.89 6.01-3.58 9.95-4.04 17.46-2.05 66.7-2.13 84.1-.05 3.46.41 6.87.37 6.92 5l-3.14 6.98c-94.06 115.34-185.53 232.76-278.78 348.74-15.8 19.65-38.24 52.64-55.13 68.78-2.42 2.31-5.49 3.74-7.79 6.2h-78.96l-2.1-10.89.15-417.65c1.04-5.48 3.79-6.47 8.85-7.14 7.35-.98 65.27-.63 69.03 1.12.94.44 4.03 3.62 4.03 3.97v298.72zm2900.49-225.79v354.67l-3 3h-73.96c-.35 0-5-4.64-5-5v-352.67h-116.94c-.35 0-3.53-3.08-3.97-4.03-1.77-3.78-2.06-57.81-1.12-65 .37-2.79.46-5.18 2.9-7.09l287.57-1.33c6.01 1.09 8.45 3.45 12.51 7.48 10.37 10.3 40.52 47.88 47.77 60.19 2.08 3.53 3.28 9.78-1.83 9.78h-144.92zm-2178.87 279.74h182.9c.71 0 3.15 2.19 4.79 2.21l-.84 7.73c-12.52 10.75-45.47 64.66-58.35 67.56l-201.57.51-7.91-4.08-.93-424.56c1.04-5.48 3.78-6.47 8.85-7.14 7.35-.98 65.27-.63 69.03 1.12.94.44 4.03 3.62 4.03 3.97v352.67zm2284.81 37.97 9.77.24c2.02 7.25 4.37 14.76 7.31 21.69 1.05 2.48 2.32 9.21 5.89 8.05l11.29-29.71 9.72-.27v39.96h-6v-31.97c-5.17 2.82-12.54 31.99-15.01 31.99-3.49 0-3.97-2.18-5.38-4.62l-11.59-27.37v31.97h-6zm-8 0-.01 3.98-11.98.01v35.97h-6v-35.97l-11.98-.01-.01-3.98z"/></svg>